<svg viewBox="0 0 84.81355 29.75" width="84.81355pt" height="29.75pt" xmlns="http://www.w3.org/2000/svg" xmlns:xlink="http://www.w3.org/1999/xlink" xmlns:h5="http://www.w3.org/1999/xhtml"><path fill="#ffffff" fill-rule="nonzero" d="M 0 0v 29.75h 84.81355v -29.75Z "/><g transform="matrix(1 0 0 -1 1.5 19.6945)"><use xlink:href="#g2CE23C639E494EB0D8183CDD3535A928" x="0" y="0" fill="#000000" fill-rule="nonzero"/></g><g transform="matrix(1 0 0 -1 9.375 19.6945)"><use xlink:href="#g461452DEB2886CB3A508FB287D53E581" x="0" y="0" fill="#000000" fill-rule="nonzero"/></g><g transform="matrix(1 0 0 -1 22.101 23.58475)"><use xlink:href="#g8C7BC7353725DE797E39209638793BD9" x="0" y="0" fill="#000000" fill-rule="nonzero"/></g><g transform="matrix(1 0 0 -1 32.1208 19.6945)"><use xlink:href="#g7D485DD8240ED109476BC69D4B8CB70B" x="0" y="0" fill="#000000" fill-rule="nonzero"/></g><g transform="matrix(1 0 0 -1 40.8743 19.6945)"><use xlink:href="#gAF035B406E88BFD4F5F2E0ED6B1ECE48" x="0" y="0" fill="#000000" fill-rule="nonzero"/></g><g transform="matrix(1 0 0 -1 50.93505 19.6945)"><use xlink:href="#gBF7FA2DFE5DFE327929EC361FF65836B" x="0" y="0" fill="#000000" fill-rule="nonzero"/></g><g transform="matrix(1 0 0 -1 67.56355 19.6945)"><use xlink:href="#gE37136A8EDAFE4B75F73A2684CECAB04" x="0" y="0" fill="#000000" fill-rule="nonzero"/></g><g transform="matrix(1 0 0 -1 75.43855 19.6945)"><use xlink:href="#gCE2CB64837A6F998D4C09803D261E0B8" x="0" y="0" fill="#000000" fill-rule="nonzero"/></g><defs><symbol id="g2CE23C639E494EB0D8183CDD3535A928" overflow="visible"><path d="M 0 0m 4.5045 -1.9215v 3.906c 0 0.89775 -0.55125 1.55925 -1.638 1.953c 1.08675 0.39375 1.638 1.05525 1.638 1.953v 3.906c 0 0.9135 0.9765 1.512 1.93725 1.512c 0.17325 0 0.252 0.07875 0.252 0.252c 0 0.17325 -0.07875 0.252 -0.252 0.252c -0.7245 0 -1.386 -0.1575 -1.96875 -0.45675c -0.74025 -0.378 -1.1025 -0.89775 -1.1025 -1.55925v -3.906c 0 -0.99225 -0.945 -1.701 -1.93725 -1.701c -0.17325 0 -0.252 -0.07875 -0.252 -0.252c 0 -0.17325 0.07875 -0.252 0.252 -0.252c 1.008 0 1.93725 -0.7245 1.93725 -1.701v -3.906c 0 -0.6615 0.36225 -1.18125 1.1025 -1.55925c 0.58275 -0.29925 1.24425 -0.45675 1.96875 -0.45675c 0.17325 0 0.252 0.07875 0.252 0.252c 0 0.17325 -0.07875 0.252 -0.252 0.252c -0.96075 0 -1.93725 0.5985 -1.93725 1.512Z "/></symbol><symbol id="g461452DEB2886CB3A508FB287D53E581" overflow="visible"><path d="M 0 0m 13.1355 10.75725c -0.26775 0 -1.197 -0.04725 -1.46475 -0.04725c -0.315 0 -1.4175 0.04725 -1.7325 0.04725c -0.23625 0 -0.36225 -0.126 -0.36225 -0.378c 0 -0.14175 0.07875 -0.2205 0.252 -0.23625c 0.378 -0.04725 0.567 -0.17325 0.567 -0.4095c 0 -0.14175 -0.0945 -0.315 -0.2835 -0.51975l -2.457 -2.646c -0.45675 1.071 -0.89775 2.12625 -1.3545 3.19725c 0.01575 0.0315 0.0315 0.063 0.07875 0.0945c 0.14175 0.1575 0.4095 0.252 0.7875 0.2835c 0.252 0.0315 0.378 0.1575 0.378 0.36225c 0 0.17325 -0.0945 0.252 -0.29925 0.252c -0.378 0 -1.59075 -0.04725 -1.96875 -0.04725c -0.33075 0 -1.4175 0.04725 -1.74825 0.04725c -0.23625 0 -0.3465 -0.126 -0.3465 -0.378c 0 -0.1575 0.14175 -0.23625 0.42525 -0.23625c 0.70875 0 0.92925 0 1.11825 -0.45675l 1.827 -4.29975l -3.276 -3.51225c -0.04725 -0.04725 -0.11025 -0.11025 -0.189 -0.1575c -0.64575 -0.67725 -1.386 -1.05525 -2.25225 -1.1025c -0.26775 -0.01575 -0.4095 -0.1575 -0.4095 -0.39375c 0.04725 -0.14175 0.063 -0.2205 0.26775 -0.2205c 0.26775 0 1.197 0.04725 1.46475 0.04725c 0.33075 0 1.4175 -0.04725 1.74825 -0.04725c 0.23625 0 0.3465 0.126 0.3465 0.378c 0 0.14175 -0.07875 0.2205 -0.252 0.23625c -0.378 0.0315 -0.567 0.17325 -0.567 0.4095c 0 0.1575 0.14175 0.378 0.4095 0.6615c 0.9765 1.0395 1.96875 2.079 2.9295 3.13425c 0.5355 -1.27575 1.08675 -2.53575 1.6065 -3.82725c -0.01575 -0.0315 -0.0315 -0.063 -0.07875 -0.11025c -0.14175 -0.14175 -0.39375 -0.2205 -0.77175 -0.26775c -0.23625 -0.0315 -0.36225 -0.1575 -0.36225 -0.36225c 0 -0.17325 0.0945 -0.252 0.29925 -0.252l 1.96875 0.04725c 0.33075 0 1.43325 -0.04725 1.71675 -0.04725c 0.23625 0 0.36225 0.126 0.36225 0.36225c 0 0.1575 -0.11025 0.23625 -0.3465 0.252c -0.48825 0 -0.80325 0.01575 -0.9135 0.07875c -0.11025 0.063 -0.23625 0.252 -0.36225 0.567l -2.00025 4.77225c 1.071 1.134 1.87425 1.9845 2.394 2.56725c 0.378 0.39375 0.63 0.6615 0.77175 0.77175c 0.58275 0.48825 1.2285 0.74025 1.93725 0.77175c 0.33075 0.01575 0.4095 0.0945 0.4095 0.39375c -0.04725 0.14175 -0.063 0.2205 -0.26775 0.2205Z "/></symbol><symbol id="g8C7BC7353725DE797E39209638793BD9" overflow="visible"><path d="M 0 0m 4.1895 4.5864c 0 0.121275 -0.121275 0.187425 -0.363825 0.187425h -0.9702l 0.385875 1.56555c 0 0.02205 0.033075 0.1323 0.033075 0.15435c 0 0.2646 -0.1323 0.3969 -0.407925 0.3969c -0.33075 0 -0.518175 -0.275625 -0.59535 -0.650475l -0.3528 -1.466325h -1.069425c -0.253575 0 -0.385875 -0.033075 -0.385875 -0.275625c 0 -0.1323 0.121275 -0.19845 0.363825 -0.19845h 0.9702l -0.6174 -2.5137c -0.11025 -0.441 -0.165375 -0.716625 -0.165375 -0.81585c 0 -0.650475 0.540225 -1.08045 1.1907 -1.08045c 0.562275 0 1.047375 0.2646 1.43325 0.804825c 0.319725 0.452025 0.4851 0.7497 0.4851 0.90405c 0 0.121275 -0.06615 0.187425 -0.209475 0.187425c -0.055125 0 -0.099225 -0.011025 -0.1323 -0.02205c -0.06615 -0.077175 -0.11025 -0.15435 -0.1323 -0.209475c -0.24255 -0.540225 -0.7497 -1.267875 -1.4112 -1.267875c -0.2205 0 -0.33075 0.165375 -0.33075 0.4851c 0 0.121275 0.02205 0.2646 0.06615 0.441l 0.760725 3.087h 1.069425c 0.253575 0 0.385875 0.055125 0.385875 0.28665Z "/></symbol><symbol id="g7D485DD8240ED109476BC69D4B8CB70B" overflow="visible"><path d="M 0 0m 3.024 5.90625c 0 0.4725 -0.36225 0.882 -0.83475 0.882c -0.4725 0 -0.83475 -0.4095 -0.83475 -0.882c 0 -0.4725 0.36225 -0.882 0.83475 -0.882c 0.4725 0 0.83475 0.4095 0.83475 0.882Z m 0 -5.02425c 0 0.4725 -0.36225 0.882 -0.83475 0.882c -0.4725 0 -0.83475 -0.4095 -0.83475 -0.882c 0 -0.4725 0.36225 -0.882 0.83475 -0.882c 0.4725 0 0.83475 0.4095 0.83475 0.882Z "/></symbol><symbol id="gAF035B406E88BFD4F5F2E0ED6B1ECE48" overflow="visible"><path d="M 0 0m 5.1975 6.59925c 0 0.14175 -0.1575 0.2205 -0.48825 0.2205h -1.27575c 0.4095 1.638 0.61425 2.4885 0.61425 2.5515c 0 0.33075 -0.17325 0.48825 -0.504 0.48825c -0.36225 0 -0.58275 -0.20475 -0.67725 -0.61425l -0.58275 -2.4255h -1.40175c -0.3465 0 -0.51975 -0.01575 -0.51975 -0.3465c 0 -0.17325 0.1575 -0.252 0.48825 -0.252h 1.27575c -0.77175 -3.07125 -1.14975 -4.6935 -1.14975 -4.89825c 0 -0.882 0.5985 -1.49625 1.4805 -1.49625c 0.5985 0 1.11825 0.26775 1.575 0.819c 0.378 0.45675 0.64575 0.89775 0.819 1.323c 0.063 0.17325 0.0945 0.26775 0.0945 0.315c 0 0.14175 -0.07875 0.2205 -0.23625 0.2205c -0.126 0 -0.2205 -0.07875 -0.2835 -0.252c -0.5355 -1.30725 -1.18125 -1.953 -1.953 -1.953c -0.26775 0 -0.4095 0.2205 -0.4095 0.64575c 0 0.23625 0.0315 0.48825 0.0945 0.74025l 1.11825 4.536h 1.40175c 0.4095 0 0.51975 0.0315 0.51975 0.378Z "/></symbol><symbol id="gBF7FA2DFE5DFE327929EC361FF65836B" overflow="visible"><path d="M 0 0m 10.773 4.8825c 0.1575 0.07875 0.23625 0.189 0.23625 0.36225c 0 0.17325 -0.07875 0.29925 -0.23625 0.378l -9.0405 4.284c -0.04725 0.01575 -0.11025 0.0315 -0.17325 0.0315c -0.252 0 -0.378 -0.126 -0.378 -0.39375c 0 -0.14175 0.07875 -0.252 0.2205 -0.315l 8.4105 -3.98475l -8.4105 -3.98475c -0.14175 -0.063 -0.2205 -0.17325 -0.2205 -0.315c 0 -0.26775 0.126 -0.39375 0.378 -0.39375c 0.063 0 0.126 0.01575 0.17325 0.04725Z m -0.0945 -6.0165h -9.1035c -0.252 0 -0.378 -0.126 -0.378 -0.36225c 0 -0.252 0.126 -0.378 0.378 -0.378h 9.1035c 0.252 0 0.378 0.126 0.378 0.378c 0 0.189 -0.17325 0.36225 -0.378 0.36225Z "/></symbol><symbol id="gE37136A8EDAFE4B75F73A2684CECAB04" overflow="visible"><path d="M 0 0m 3.92175 -0.3465c 2.22075 0 3.32325 1.7955 3.32325 5.3865c 0 2.40975 -0.504 4.01625 -1.49625 4.80375c -0.55125 0.42525 -1.1655 0.64575 -1.81125 0.64575c -2.22075 0 -3.32325 -1.81125 -3.32325 -5.4495c 0 -2.898 0.77175 -5.3865 3.3075 -5.3865Z m 1.764 8.5995c 0.11025 -0.55125 0.1575 -1.55925 0.1575 -3.024c 0 -1.449 -0.063 -2.52 -0.17325 -3.213c -0.20475 -1.26 -0.7875 -1.89 -1.74825 -1.89c -0.36225 0 -0.7245 0.14175 -1.05525 0.4095c -0.42525 0.36225 -0.67725 1.1025 -0.7875 2.2365c -0.04725 0.39375 -0.063 1.21275 -0.063 2.457c 0 1.37025 0.04725 2.331 0.126 2.85075c 0.14175 0.86625 0.42525 1.4175 0.86625 1.65375c 0.3465 0.189 0.64575 0.2835 0.9135 0.2835c 1.02375 0 1.59075 -0.83475 1.764 -1.764Z "/></symbol><symbol id="gCE2CB64837A6F998D4C09803D261E0B8" overflow="visible"><path d="M 0 0m 4.5045 5.8905v 3.906c 0 0.6615 -0.36225 1.18125 -1.1025 1.55925c -0.58275 0.29925 -1.24425 0.45675 -1.96875 0.45675c -0.17325 0 -0.252 -0.07875 -0.252 -0.252c 0 -0.17325 0.07875 -0.252 0.252 -0.252c 0.96075 0 1.93725 -0.5985 1.93725 -1.512v -3.906c 0 -0.89775 0.55125 -1.55925 1.638 -1.953c -1.08675 -0.39375 -1.638 -1.05525 -1.638 -1.953v -3.906c 0 -0.9135 -0.9765 -1.512 -1.93725 -1.512c -0.17325 0 -0.252 -0.07875 -0.252 -0.252c 0 -0.17325 0.07875 -0.252 0.252 -0.252c 0.7245 0 1.386 0.1575 1.96875 0.45675c 0.74025 0.378 1.1025 0.89775 1.1025 1.55925v 3.906c 0 0.9765 0.92925 1.701 1.93725 1.701c 0.17325 0 0.252 0.07875 0.252 0.252c 0 0.17325 -0.07875 0.252 -0.252 0.252c -1.008 0 -1.93725 0.7245 -1.93725 1.701Z "/></symbol></defs></svg>