<svg viewBox="0 0 66.63245 29.75" width="66.63245pt" height="29.75pt" xmlns="http://www.w3.org/2000/svg" xmlns:xlink="http://www.w3.org/1999/xlink" xmlns:h5="http://www.w3.org/1999/xhtml"><path fill="#ffffff" fill-rule="nonzero" d="M 0 0v 29.75h 66.63245v -29.75Z "/><g transform="matrix(1 0 0 -1 1.5 19.6945)"><use xlink:href="#g2AF98F098C9A0E7B9CB97AFC51FB1243" x="0" y="0" fill="#000000" fill-rule="nonzero"/></g><g transform="matrix(1 0 0 -1 10.0365 23.58475)"><use xlink:href="#gB667B7C4812ED81B53506140C0F825D8" x="0" y="0" fill="#000000" fill-rule="nonzero"/></g><g transform="matrix(1 0 0 -1 15.99 23.58475)"><use xlink:href="#g82BE830B6B074CA2360C2AFC34D41181" x="0" y="0" fill="#000000" fill-rule="nonzero"/></g><g transform="matrix(1 0 0 -1 27.189475 19.6945)"><use xlink:href="#g3360A48BB47FA5CC3A8FDE6C3B7A48B3" x="0" y="0" fill="#000000" fill-rule="nonzero"/></g><g transform="matrix(1 0 0 -1 43.817975 19.6945)"><use xlink:href="#g2AF98F098C9A0E7B9CB97AFC51FB1243" x="0" y="0" fill="#000000" fill-rule="nonzero"/></g><g transform="matrix(1 0 0 -1 52.354475 23.58475)"><use xlink:href="#g82BE830B6B074CA2360C2AFC34D41181" x="0" y="0" fill="#000000" fill-rule="nonzero"/></g><g transform="matrix(1 0 0 -1 58.29695 23.58475)"><use xlink:href="#gB667B7C4812ED81B53506140C0F825D8" x="0" y="0" fill="#000000" fill-rule="nonzero"/></g><defs><symbol id="g2AF98F098C9A0E7B9CB97AFC51FB1243" overflow="visible"><path d="M 0 0m 8.74125 10.75725h -5.04c -0.36225 0 -0.5355 -0.01575 -0.5355 -0.36225c 0 -0.17325 0.17325 -0.252 0.51975 -0.252c 0.315 0 0.945 0.04725 0.945 -0.20475c 0 -0.0315 -0.01575 -0.126 -0.063 -0.2835l -2.079 -8.36325c -0.0945 -0.3465 -0.252 -0.55125 -0.4725 -0.63c -0.11025 -0.0315 -0.39375 -0.04725 -0.882 -0.04725c -0.3465 0 -0.504 -0.0315 -0.504 -0.36225c 0 -0.17325 0.0945 -0.252 0.29925 -0.252l 1.96875 0.04725l 1.008 -0.01575c 0.17325 0 0.80325 -0.0315 1.008 -0.0315c 0.252 0 0.378 0.126 0.378 0.378c 0 0.1575 -0.17325 0.23625 -0.504 0.23625c -0.63 0 -0.945 0.063 -0.945 0.20475c 0 0 0.01575 0.04725 0.04725 0.252l 0.945 3.843h 2.59875c 1.02375 0 2.00025 0.315 2.91375 0.92925c 1.02375 0.67725 1.52775 1.512 1.52775 2.50425c 0 1.55925 -1.4805 2.40975 -3.13425 2.40975Z m -0.48825 -0.61425c 1.37025 0 2.0475 -0.4725 2.0475 -1.4175c 0 -0.882 -0.441 -2.06325 -0.89775 -2.47275c -0.5985 -0.5355 -1.386 -0.80325 -2.3625 -0.80325h -2.1105l 1.0395 4.158c 0.126 0.5355 0.126 0.5355 0.7875 0.5355Z "/></symbol><symbol id="gB667B7C4812ED81B53506140C0F825D8" overflow="visible"><path d="M 0 0m 5.6448 4.024125c 0 0.5733 -0.584325 0.8379 -1.1907 0.8379c -0.562275 0 -1.069425 -0.24255 -1.510425 -0.72765c -0.06615 0.1764 -0.165375 0.319725 -0.3087 0.441c -0.253575 0.187425 -0.5292 0.28665 -0.826875 0.28665c -0.37485 0 -0.672525 -0.187425 -0.882 -0.5733c -0.275625 -0.474075 -0.407925 -0.848925 -0.407925 -1.12455c 0 -0.121275 0.077175 -0.187425 0.231525 -0.187425c 0.2205 0 0.209475 0.121275 0.275625 0.3528c 0.187425 0.760725 0.441 1.1466 0.7497 1.1466c 0.209475 0 0.319725 -0.165375 0.319725 -0.496125c 0 -0.121275 -0.055125 -0.407925 -0.1764 -0.882l -0.584325 -2.35935c -0.077175 -0.297675 -0.11025 -0.452025 -0.11025 -0.46305c 0 -0.253575 0.1323 -0.385875 0.407925 -0.385875c 0.385875 0 0.496125 0.24255 0.584325 0.606375c 0.24255 1.003275 0.429975 1.752975 0.562275 2.27115c 0.099225 0.3528 0.143325 0.540225 0.143325 0.55125c 0.011025 0.055125 0.0882 0.187425 0.231525 0.385875c 0.363825 0.518175 0.7938 0.77175 1.289925 0.77175c 0.187425 0 0.3528 -0.033075 0.4851 -0.099225c -0.275625 -0.121275 -0.407925 -0.319725 -0.407925 -0.606375c 0 -0.2646 0.209475 -0.452025 0.474075 -0.452025c 0.37485 0 0.650475 0.33075 0.650475 0.7056Z "/></symbol><symbol id="g82BE830B6B074CA2360C2AFC34D41181" overflow="visible"><path d="M 0 0m 5.18175 3.8808c 0 0.68355 -0.716625 0.981225 -1.47735 0.981225c -0.7938 0 -1.356075 -0.231525 -1.6758 -0.694575c -0.24255 -0.341775 -0.363825 -0.650475 -0.363825 -0.9261c 0 -0.518175 0.275625 -0.870975 0.826875 -1.0584c 0.099225 -0.033075 0.37485 -0.0882 0.81585 -0.165375c 0.584325 -0.11025 0.882 -0.33075 0.882 -0.672525c 0 -0.121275 -0.0441 -0.253575 -0.1323 -0.41895c -0.231525 -0.429975 -0.72765 -0.650475 -1.47735 -0.650475c -0.606375 0 -1.0143 0.1323 -1.223775 0.385875c 0.297675 0.055125 0.562275 0.3087 0.562275 0.650475c 0 0.297675 -0.15435 0.441 -0.46305 0.441c -0.41895 0 -0.672525 -0.3528 -0.672525 -0.77175c 0 -0.77175 0.915075 -1.091475 1.78605 -1.091475c 0.7497 0 1.323 0.1764 1.7199 0.518175c 0.452025 0.385875 0.672525 0.826875 0.672525 1.311975c 0 0.68355 -0.50715 1.12455 -1.52145 1.311975c -0.187425 0.0441 -0.33075 0.077175 -0.429975 0.0882c -0.37485 0.06615 -0.562275 0.231525 -0.562275 0.496125c 0 0.121275 0.0441 0.231525 0.121275 0.3528c 0.209475 0.341775 0.584325 0.50715 1.12455 0.50715c 0.46305 0 0.782775 -0.11025 0.94815 -0.33075c -0.275625 -0.0882 -0.41895 -0.2646 -0.41895 -0.540225c 0 -0.253575 0.1323 -0.385875 0.3969 -0.385875c 0.33075 0 0.562275 0.28665 0.562275 0.6615Z "/></symbol><symbol id="g3360A48BB47FA5CC3A8FDE6C3B7A48B3" overflow="visible"><path d="M 0 0m 10.9935 5.78025h -9.7335c -0.252 0 -0.378 -0.126 -0.378 -0.36225c 0 -0.23625 0.126 -0.36225 0.378 -0.36225h 9.7335c 0.252 0 0.378 0.126 0.378 0.36225c 0 0.189 -0.17325 0.36225 -0.378 0.36225Z m 0 -2.961h -9.7335c -0.252 0 -0.378 -0.126 -0.378 -0.36225c 0 -0.23625 0.126 -0.36225 0.378 -0.36225h 9.7335c 0.252 0 0.378 0.126 0.378 0.36225c 0 0.20475 -0.17325 0.36225 -0.378 0.36225Z "/></symbol></defs></svg>