<svg viewBox="0 0 17.491575 29.75" width="17.491575pt" height="29.75pt" xmlns="http://www.w3.org/2000/svg" xmlns:xlink="http://www.w3.org/1999/xlink" xmlns:h5="http://www.w3.org/1999/xhtml"><path fill="#ffffff" fill-rule="nonzero" d="M 0 0v 29.75h 17.491575v -29.75Z "/><g transform="matrix(1 0 0 -1 1.5 19.6945)"><use xlink:href="#gC5A88FF7D199AB6FBB4F21AA6EF97DDB" x="0" y="0" fill="#000000" fill-rule="nonzero"/></g><g transform="matrix(1 0 0 -1 9.89475 23.58475)"><use xlink:href="#g763C0C369BF03D8FE1FA8CBF02CAC3F7" x="0" y="0" fill="#000000" fill-rule="nonzero"/></g><defs><symbol id="gC5A88FF7D199AB6FBB4F21AA6EF97DDB" overflow="visible"><path d="M 0 0m 3.13425 10.332c 0 -0.1575 0.17325 -0.23625 0.504 -0.23625c 0.63 0 0.945 -0.063 0.945 -0.20475c 0 -0.04725 -0.0315 -0.1575 -0.07875 -0.36225l -2.0475 -8.23725c -0.0945 -0.3465 -0.252 -0.55125 -0.4725 -0.63c -0.11025 -0.0315 -0.39375 -0.04725 -0.882 -0.04725c -0.3465 0 -0.504 -0.0315 -0.504 -0.36225c 0 -0.17325 0.0945 -0.252 0.29925 -0.252l 2.0475 0.04725l 2.331 -0.04725c 0.252 0 0.378 0.126 0.378 0.36225c 0 0.26775 -0.17325 0.252 -0.58275 0.252c -0.693 0 -1.08675 0.0315 -1.18125 0.11025c -0.04725 0.01575 -0.063 0.07875 -0.063 0.1575l 1.008 4.17375h 1.46475c 0.7245 0 1.2285 -0.0315 1.2285 -0.63c 0 -0.20475 -0.0315 -0.45675 -0.11025 -0.756c -0.01575 -0.04725 -0.0315 -0.11025 -0.04725 -0.17325c 0 -0.17325 0.07875 -0.252 0.252 -0.252c 0.07875 0.01575 0.189 0.126 0.29925 0.36225l 0.8505 3.38625c 0.0315 0.126 0.04725 0.2205 0.04725 0.26775c -0.04725 0.14175 -0.14175 0.2205 -0.252 0.2205c -0.126 0 -0.2205 -0.126 -0.2835 -0.36225c -0.1575 -0.5985 -0.378 -0.9765 -0.63 -1.1655c -0.252 -0.189 -0.693 -0.2835 -1.323 -0.2835h -1.33875l 0.9765 3.8745c 0.126 0.5355 0.126 0.55125 0.7875 0.55125h 2.0475c 1.52775 0 2.22075 -0.23625 2.22075 -1.638c 0 -0.315 -0.01575 -0.5985 -0.04725 -0.83475c -0.01575 -0.17325 -0.0315 -0.26775 -0.0315 -0.2835c 0 -0.17325 0.07875 -0.252 0.23625 -0.252c 0.1575 0 0.252 0.14175 0.2835 0.441l 0.315 2.69325c 0.04725 0.441 -0.063 0.48825 -0.48825 0.48825h -7.623c -0.36225 0 -0.5355 -0.01575 -0.5355 -0.378Z "/></symbol><symbol id="g763C0C369BF03D8FE1FA8CBF02CAC3F7" overflow="visible"><path d="M 0 0m 4.839975 6.846525c 0 0.2646 -0.209475 0.46305 -0.474075 0.46305c -0.319725 0 -0.650475 -0.319725 -0.650475 -0.63945c 0 -0.2646 0.209475 -0.46305 0.474075 -0.46305c 0.33075 0 0.650475 0.3087 0.650475 0.63945Z m -1.598625 -1.96245c -0.6174 0 -1.157625 -0.407925 -1.444275 -0.7938c -0.33075 -0.474075 -0.496125 -0.782775 -0.496125 -0.9261c 0 -0.121275 0.077175 -0.1764 0.2205 -0.1764c 0.11025 0 0.19845 0.077175 0.2646 0.2205c 0.121275 0.2646 0.2646 0.496125 0.429975 0.7056c 0.319725 0.385875 0.650475 0.5733 0.99225 0.5733c 0.209475 0 0.319725 -0.165375 0.319725 -0.4851c 0 -0.1323 -0.011025 -0.24255 -0.033075 -0.319725l -1.03635 -4.178475c -0.15435 -0.628425 -0.650475 -1.356075 -1.356075 -1.356075c -0.099225 0 -0.187425 0.011025 -0.275625 0.033075c 0.19845 0.121275 0.297675 0.3087 0.297675 0.540225c 0 0.297675 -0.15435 0.452025 -0.46305 0.452025c -0.37485 0 -0.6615 -0.319725 -0.6615 -0.694575c 0 -0.50715 0.55125 -0.72765 1.113525 -0.72765c 0.253575 0 0.5292 0.0441 0.81585 0.143325c 0.68355 0.231525 1.30095 0.882 1.47735 1.620675l 0.981225 3.90285c 0.033075 0.143325 0.055125 0.275625 0.055125 0.3969c 0 0.63945 -0.562275 1.069425 -1.201725 1.069425Z "/></symbol></defs></svg>